<svg width="512" height="512" viewBox="0 0 512 512" fill="none" xmlns="http://www.w3.org/2000/svg">
  <circle cx="256" cy="256" r="256" fill="#F8F9FA"/>
  <path d="M396 156H116C107.163 156 100 163.163 100 172V356C100 364.837 107.163 372 116 372H396C404.837 372 412 364.837 412 356V172C412 163.163 404.837 156 396 156Z" stroke="#FF5722" stroke-width="14" stroke-linecap="round" stroke-linejoin="round"/>
  <path d="M340 156V132C340 127.757 338.314 123.687 335.314 120.686C332.313 117.686 328.243 116 324 116H188C183.757 116 179.687 117.686 176.686 120.686C173.686 123.687 172 127.757 172 132V156" stroke="#2C5364" stroke-width="14" stroke-linecap="round" stroke-linejoin="round"/>
  <path d="M412 228H100" stroke="#FF5722" stroke-width="14" stroke-linecap="round" stroke-linejoin="round"/>
  <path d="M180 268H332" stroke="#2C5364" stroke-width="14" stroke-linecap="round" stroke-linejoin="round"/>
  <path d="M180 308H260" stroke="#2C5364" stroke-width="14" stroke-linecap="round" stroke-linejoin="round"/>
  <path d="M256 156V412" stroke="#FF5722" stroke-width="14" stroke-linecap="round" stroke-linejoin="round"/>
</svg> 