<svg width="24" height="24" viewBox="0 0 24 24" fill="none" xmlns="http://www.w3.org/2000/svg">
<path d="M19 8.71L13.667 4.56C13.2098 4.19913 12.6098 4.00131 11.9951 4.00131C11.3804 4.00131 10.7803 4.19913 10.323 4.56L5 8.71C4.71328 8.9387 4.4845 9.23338 4.33078 9.57228C4.17706 9.91118 4.10215 10.2839 4.11 10.66V18.35C4.11 18.9467 4.34661 19.5192 4.76772 19.9403C5.18883 20.3614 5.76134 20.598 6.358 20.598H17.632C18.2287 20.598 18.8012 20.3614 19.2223 19.9403C19.6434 19.5192 19.88 18.9467 19.88 18.35V10.66C19.8879 10.2839 19.8129 9.91118 19.6592 9.57228C19.5055 9.23338 19.2767 8.9387 19 8.71Z" stroke="currentColor" stroke-width="1.5" stroke-linecap="round" stroke-linejoin="round"/>
<path d="M9.888 17.598C9.888 16.3132 10.7 15.598 12 15.598C13.3 15.598 14.113 16.3132 14.113 17.598H9.888Z" stroke="currentColor" stroke-width="1.5" stroke-linecap="round" stroke-linejoin="round"/>
</svg> 