<svg width="24" height="24" viewBox="0 0 24 24" fill="none" xmlns="http://www.w3.org/2000/svg">
<path d="M14.05 4.59C14.8885 4.85388 15.6526 5.3368 16.2659 5.9959C16.8791 6.65499 17.3217 7.46374 17.5401 8.34992" stroke="currentColor" stroke-width="1.5" stroke-linecap="round" stroke-linejoin="round"/>
<path d="M13.8785 8.25203C14.2325 8.74204 14.7125 9.12942 15.2685 9.37385" stroke="currentColor" stroke-width="1.5" stroke-linecap="round" stroke-linejoin="round"/>
<path d="M5.79867 11.69L7.17867 11.14C7.62697 10.9773 8.11541 10.9453 8.58293 11.0473C9.05045 11.1494 9.47873 11.382 9.82867 11.72L10.6687 12.57C9.94591 13.7321 10.5646 15.3598 12.0187 16.7998C13.4687 18.2398 15.1187 18.8998 16.2787 18.1498L17.1287 18.9998C17.4666 19.3491 17.6991 19.7767 17.8013 20.2438C17.9036 20.7108 17.8718 21.1989 17.7087 21.6498L17.1587 23.0298C16.8553 23.8146 16.2334 24.4431 15.4487 24.7498C14.1687 25.2498 12.5887 25.2498 10.6387 24.2498C7.76867 22.8498 4.71867 19.7898 3.19867 16.7698C2.23867 14.8098 2.25867 13.1898 2.75867 11.9998C3.0596 11.216 3.68644 10.5936 4.46867 10.2898L5.79867 11.69Z" stroke="currentColor" stroke-width="1.5" stroke-linecap="round" stroke-linejoin="round"/>
</svg> 